#!OML:ASF F:\VICON\USERDATA\INSTALL\rory3\rory3.ASF
:FULLY-SPECIFIED
:DEGREES
18
root 0.0466443034441647 17.414604207035143 -14.396189657899667 -0.3383844567297296 2.085775925400973 -2.2460472280662587
lfemur -29.790493239944645 2.3401297208733776 -22.431600011544905
ltibia 46.52190184197286
lfoot -12.641291628841042 -8.428043118886267
ltoes 0.34858440788381095
rfemur 3.421020598768557 5.1061104431216044 28.16079949451047
rtibia 72.43389127062238
rfoot 12.269191575292838 -9.842782968132486
rtoes 12.637987047390467
lowerback 15.556091568408862 3.1145960287486485 0.4195387421755614
upperback 0.3342945357395213 4.28910868214602 0.9786760264595151
thorax -8.415187836955878 2.0713971658373103 -0.15412070986268958
lowerneck -16.910009933880858 -5.489007196129238 -2.692307609347468
upperneck 13.492500720510316 -7.740786429085071 5.427491026631562
head 7.235523285843774 -3.353537610845567 1.3348559716605348
lclavicle 3.072423102555502e-16 -4.3067565440502195e-16
lhumerus -60.040991785012835 -11.113304173431828 102.00898077332333
lradius 111.94299644746116
lwrist 28.269317172052382
lhand -27.615485975074545 2.307115309660597
lfingers 7.125020000000001
lthumb -1.01457597446968 32.28440530542852
rclavicle 3.072423102555502e-16 -4.3067565440502195e-16
rhumerus -37.417006176385975 9.538926265134199 -95.97840120480625
rradius 98.30351044685814
rwrist -17.91271237183288
rhand -20.104589074784332 37.887602102625955
rfingers 7.125020000000001
rthumb 6.2388909247797235 7.9994723119511635
19
root 0.03232337364408913 17.228407312947596 -13.525290027973858 -0.5048384154559091 2.0679759763455547 -1.1048715366944186
lfemur -28.017694100544645 3.0085176339548045 -24.017197026751386
ltibia 50.13690017891514
lfoot -17.23978900037314 -5.59507730236821
ltoes 1.3884682695370092
rfemur -1.3307972118632847 4.053913674389544 25.9466036755505
rtibia 79.40038795221483
rfoot 10.087293126606614 -9.304033962646223
rtoes 11.966587629490284
lowerback 15.941289678086422 3.1273959494340686 -1.180483146112026
upperback 0.6935381506626699 3.9740899423133724 0.5456928013329754
thorax -8.318609100541845 1.9718880776818195 0.34387828346522653
lowerneck -17.13330843611148 -5.469087367365475 -2.401923398463534
upperneck 12.919805442915562 -7.769566267779295 5.562409889219092
head 7.082878021159865 -3.348007681079914 1.329036137237697
lclavicle 3.0724216836892e-16 -4.306756365738154e-16
lhumerus -56.34439450914319 -13.575998444496097 102.78597723396524
lradius 111.47899761260784
lwrist 28.56061543833877
lhand -27.912983674478813 2.7610929587003925
lfingers 7.125020000000001
lthumb -1.301903673849056 32.73690295833454
rclavicle 3.0724216836892e-16 -4.306756365738154e-16
rhumerus -38.355605445153955 8.117570506927471 -96.4865984767994
rradius 96.19021566316695
rwrist -18.995903926185495
rhand -20.203488185563103 35.854512819188116
rfingers 7.125020000000001
rthumb 6.143351814701585 5.963563017336814
20
root 0.01634652133892045 17.01861081252027 -12.72459036821776 0.09418043730576908 2.596694463119765 0.36788590275585586
lfemur -26.683794748082022 2.5119791843049732 -25.767893731167362
ltibia 52.57569905696075
lfoot -21.271786695712397 -2.3850720426297887
ltoes -1.4502186229908895
rfemur -8.01679413133499 2.0468798379363786 23.089509070568766
rtibia 86.31068466057732
rfoot 7.875204699385297 -8.537125378335398
rtoes 13.251286515663082
lowerback 16.415087352970204 2.8696675464454655 -2.8369988892225457
upperback 0.711256885058094 3.2602327979513515 -0.08883106670373442
thorax -8.604555359369682 1.6780607701476224 0.7414056816404372
lowerneck -18.101501941976633 -5.49823711678634 -2.2257769101298965
upperneck 13.00560473542059 -7.90043553428081 5.8637273490091495
head 7.2875516718346285 -3.3513576385328845 1.3600652544439975
lclavicle 3.072423152096604e-16 -4.3067560976233384e-16
lhumerus -51.9597977402804 -16.367491950678705 102.72997748905411
lradius 110.69099959134832
lwrist 29.81210798985755
lhand -26.206996867138717 3.6075585752093047
lfingers 7.125020000000001
lthumb 0.3457771332410386 33.58699854891004
rclavicle 3.072423152096604e-16 -4.3067560976233384e-16
rhumerus -38.99760494499315 6.920694078800555 -97.0867952549385
rradius 93.70452179867958
rwrist -18.089410994113262
rhand -20.551885053058797 37.66170329335509
rfingers 7.125020000000001
rthumb 5.807044947312245 7.761273564467401
21
root -0.09765028888679128 16.863874276841994 -8.761521682313697 2.3216958845479456 3.4010383807811935 -0.3158012630570961
lfemur -22.744121186741985 0.5000307457447309 -27.177256727478515
ltibia 48.26330202791733
lfoot -24.7375591889471 -0.668613736212869
ltoes -2.1445123450658317
rfemur -15.553226049103772 1.1485336617065527 21.30934659653414
rtibia 93.99393962993787
rfoot 6.786426644912206 -7.924813057169367
rtoes 13.49344409581192
lowerback 16.456113950399825 2.168776052850123 -2.7829831299104733
upperback 0.29849944707709253 2.490930279253683 -0.8475440296292518
thorax -8.730699505564123 1.1985694913015532 0.48876688392668144
lowerneck -18.109120910106977 -5.3434571593217575 -2.4077437555305963
upperneck 12.193653616285927 -7.371450914568592 5.452295656801081
head 7.030698078440366 -3.2046678690376265 1.3316619626088213
lclavicle 3.0724827260905024e-16 -4.306722120864316e-16
lhumerus -44.529992409074666 -18.176454954990128 99.4706010595563
lradius 109.54917432138551
lwrist 30.837251109714348
lhand -26.090751179326787 3.294823334159115
lfingers 7.125020000000001
lthumb 0.4184889148778885 33.28063516630479
rclavicle 3.0728743625769463e-16 -4.3064985700817114e-16
rhumerus -41.37817754578494 7.2198068562376605 -97.19136261492551
rradius 94.11816589484758
rwrist -18.427581536187933
rhand -19.248494927052 39.02162145691431
rfingers 7.125020000000001
rthumb 7.193947505213973 9.387837951738767
